<svg xmlns="http://www.w3.org/2000/svg" viewBox="0 0 128.62 88"><defs><style>.cls-c,.cls-d{fill:none;stroke-linecap:round;stroke-miterlimit:10;stroke-width:2px;}.cls-c{stroke:#323233;}.cls-d{stroke:#673ab7;}</style></defs><title>ux</title><g id="Layer_2" data-name="Layer 2"><g id="Features"><g id="_Group_" data-name="&lt;Group&gt;"><path id="_Path_" data-name="&lt;Path&gt;" class="cls-c" d="M123.22,76V3.39A2.38,2.38,0,0,0,120.84,1H8.61A2.39,2.39,0,0,0,6.22,3.39V76"></path><polyline id="_Path_2" data-name="&lt;Path&gt;" class="cls-c" points="111.22 71 111.22 11 17.22 11 17.22 71"></polyline><path id="_Path_3" data-name="&lt;Path&gt;" class="cls-c" d="M123.6,87H5A3.1,3.1,0,0,1,2,84.38L1,78.45A1.25,1.25,0,0,1,2.25,77H51.7A2.8,2.8,0,0,1,54,78.21l.08.1A3.92,3.92,0,0,0,57.32,80H68.4a3.91,3.91,0,0,0,3.14-1.57l.23-.3A2.84,2.84,0,0,1,74,77h52.34a1.25,1.25,0,0,1,1.23,1.45l-.93,5.93A3.11,3.11,0,0,1,123.6,87Z"></path></g><polyline class="cls-d" points="54.91 36.03 46.01 43.54 54.83 51.84"></polyline><polyline class="cls-d" points="75.08 36.03 83.99 43.54 75.17 51.84"></polyline><line class="cls-d" x1="59.58" y1="53.31" x2="70.05" y2="34.52"></line></g></g></svg>